<svg width="47" height="47" viewBox="0 0 47 47" fill="none" xmlns="http://www.w3.org/2000/svg">
<circle cx="23.5" cy="23.5" r="23.5" fill="#A0A0A0"/>
<path d="M23.5 16.4684C22.0285 16.4684 20.5901 16.9137 19.3666 17.7481C18.1431 18.5825 17.1895 19.7685 16.6263 21.156C16.0632 22.5436 15.9159 24.0704 16.203 25.5434C16.49 27.0165 17.1986 28.3695 18.2391 29.4315C19.2796 30.4935 20.6053 31.2167 22.0485 31.5097C23.4917 31.8027 24.9877 31.6523 26.3472 31.0776C27.7066 30.5029 28.8686 29.5296 29.6861 28.2808C30.5037 27.032 30.94 25.5639 30.94 24.062C30.94 22.048 30.1561 20.1166 28.7609 18.6925C27.3656 17.2684 25.4732 16.4684 23.5 16.4684ZM23.5 29.1244C22.519 29.1244 21.56 28.8275 20.7444 28.2712C19.9287 27.715 19.293 26.9243 18.9176 25.9993C18.5421 25.0743 18.4439 24.0564 18.6353 23.0744C18.8267 22.0924 19.2991 21.1903 19.9928 20.4823C20.6864 19.7743 21.5702 19.2922 22.5324 19.0969C23.4945 18.9015 24.4918 19.0018 25.3981 19.3849C26.3044 19.7681 27.0791 20.417 27.6241 21.2495C28.1691 22.082 28.46 23.0608 28.46 24.062C28.4559 25.4034 27.932 26.6886 27.0027 27.6371C26.0734 28.5855 24.8142 29.1202 23.5 29.1244ZM30.32 8.24194H16.68C14.3779 8.24194 12.1701 9.17532 10.5423 10.8368C8.9145 12.4982 8 14.7516 8 17.1012V31.0228C8 33.3724 8.9145 35.6258 10.5423 37.2873C12.1701 38.9487 14.3779 39.8821 16.68 39.8821H30.32C32.6221 39.8821 34.8299 38.9487 36.4577 37.2873C38.0855 35.6258 39 33.3724 39 31.0228V17.1012C39 14.7516 38.0855 12.4982 36.4577 10.8368C34.8299 9.17532 32.6221 8.24194 30.32 8.24194V8.24194ZM36.52 31.0228C36.52 31.8538 36.3596 32.6767 36.0481 33.4445C35.7365 34.2122 35.2798 34.9098 34.7041 35.4974C34.1283 36.085 33.4449 36.5511 32.6926 36.8692C31.9404 37.1872 31.1342 37.3509 30.32 37.3509H16.68C15.8658 37.3509 15.0596 37.1872 14.3074 36.8692C13.5551 36.5511 12.8717 36.085 12.2959 35.4974C11.7202 34.9098 11.2635 34.2122 10.9519 33.4445C10.6404 32.6767 10.48 31.8538 10.48 31.0228V17.1012C10.48 15.4229 11.1332 13.8133 12.2959 12.6266C13.4587 11.4399 15.0357 10.7732 16.68 10.7732H30.32C31.1342 10.7732 31.9404 10.9368 32.6926 11.2548C33.4449 11.5729 34.1283 12.039 34.7041 12.6266C35.2798 13.2142 35.7365 13.9118 36.0481 14.6795C36.3596 15.4473 36.52 16.2702 36.52 17.1012V31.0228ZM33.42 15.8356C33.42 16.211 33.3109 16.5781 33.1065 16.8903C32.9022 17.2025 32.6117 17.4458 32.2718 17.5895C31.9319 17.7332 31.5579 17.7708 31.1971 17.6975C30.8363 17.6243 30.5049 17.4434 30.2448 17.1779C29.9847 16.9125 29.8075 16.5742 29.7357 16.2059C29.664 15.8377 29.7008 15.456 29.8416 15.1091C29.9824 14.7622 30.2208 14.4657 30.5266 14.2571C30.8325 14.0485 31.1921 13.9372 31.56 13.9372C32.0533 13.9372 32.5264 14.1372 32.8752 14.4932C33.224 14.8492 33.42 15.3321 33.42 15.8356Z" fill="black"/>
</svg>
