<svg width="99" height="36" viewBox="0 0 99 36" fill="none" xmlns="http://www.w3.org/2000/svg">
<path d="M99 0L26.5727 32.0362C20.5666 34.6759 15.5217 36 11.4421 36C6.82203 36 3.46838 34.3202 1.38937 30.9563C0.0817327 28.7966 -0.301895 26.0583 0.234359 22.7373C0.770613 19.4163 2.19787 15.881 4.50789 12.1186C6.43428 9.07606 9.58993 5.07797 13.9831 0.119985C12.493 2.55683 11.4003 5.23248 10.7491 8.03904C9.59406 13.1599 10.6336 16.918 13.8676 19.3177C15.4062 20.4361 17.5224 20.9975 20.2201 20.9975C22.3734 20.9975 24.7989 20.6375 27.4967 19.9176L99 0Z" fill="black"/>
</svg>
