<?xml version="1.0" encoding="UTF-8"?><svg id="a" xmlns="http://www.w3.org/2000/svg" viewBox="0 0 447.51 167.01"><defs><style>.b{fill:none;stroke:#000;stroke-linecap:round;stroke-linejoin:round;stroke-width:4.66px;}</style></defs><path class="b" d="M59.28,8.7c.07,.07,6.28-6.45,6.37-6.37,.3,.3-35.83,46.87-35.58,47.11,.32,.32,27.29-28.1,27.69-27.69,.43,.43-43.96,54.04-43.27,54.74,.51,.51,40.06-40.56,40.31-40.31,.61,.61-46.66,57.56-46.18,58.03,.57,.57,43.67-44.55,44.11-44.11,.36,.36-50.98,61.63-50.4,62.21S53.09,60.58,53.58,61.07c.66,.66-50.53,61.07-50.04,61.56,.42,.42,48.99-50.32,49.65-49.65,.6,.6-48.15,59-47.7,59.45,.28,.28,52.57-54.09,53.33-53.33,.58,.58-50.34,60.35-49.61,61.08s55.62-56.99,56.31-56.31c.6,.6-53.75,63.4-52.97,64.18,.6,.6,59.05-60.03,59.54-59.54,.44,.44-54.25,64.45-53.73,64.97,.64,.64,58.98-59.73,59.35-59.35,.43,.43-53.3,63.45-52.5,64.25,.51,.51,62.5-63.36,62.93-62.93,.88,.88-54.74,64.55-53.88,65.42,.34,.34,64.38-65.18,64.78-64.78,.77,.77-57.12,67.09-56.45,67.77,.41,.41,69.2-70.29,69.75-69.75s-59.61,69.89-58.93,70.57c.76,.76,70.63-72.72,71.67-71.67,.48,.48-59.39,70.45-59.06,70.78,1,1,72.03-73.6,72.82-72.82s-58.89,69.03-58.36,69.56c1.07,1.07,73.54-74.63,74.09-74.09,.51,.51-59.95,70.3-59.49,70.77,.4,.4,71.55-73.7,72.63-72.63,.89,.89-55.77,66.36-55.23,66.9,.57,.57,69.94-71.49,70.72-70.72,.33,.33-53.37,64.05-53.03,64.39,.88,.88,66.51-68.12,67.32-67.32,.68,.68-45.13,55.31-44.47,55.96,.52,.52,58.05-58.79,58.42-58.42,.35,.35-38.19,49.18-37.84,49.53,.74,.74,54.24-54.91,54.57-54.57,.38,.38-36.77,47.37-36.43,47.71s50.38-51.11,50.75-50.75c.44,.44-28.1,38.86-27.63,39.33,.64,.64,44.13-44.7,44.42-44.42,.45,.45-25.82,36.85-25.44,37.24,.56,.56,40.25-41.21,40.73-40.73,.23,.23-18.26,29.16-18.11,29.32,.53,.53,36.37-36.92,36.64-36.64s-15.93,27.08-15.64,27.37c.26,.26,30.78-31.55,31.16-31.16,.17,.17-10.37,21.75-10.21,21.91,.28,.28,26.27-26.8,26.54-26.54,.17,.17-8.31,19.35-8.11,19.55,.3,.3,25.89-26.6,26.25-26.25,.11,.11-3.65,15.14-3.58,15.22,.2,.2,20.42-20.64,20.53-20.53,.06,.06-2.32,13.47-2.27,13.53,.18,.18,16.49-16.92,16.7-16.7,.06,.06,4.14,7.46,4.18,7.5,.17,.17,13.87-14.16,14.02-14.02,.08,.08,7.77,3.81,7.84,3.89,.12,.12,7.45-7.55,7.5-7.5,.11,.11,12.49-1.19,12.57-1.11,.06,.06,6.05-6.15,6.1-6.1,.07,.07,14.94-3.75,15.01-3.68,0,0,3.47-3.52,3.5-3.5"/></svg>