<svg width="245" height="49" viewBox="0 0 245 49" fill="none" xmlns="http://www.w3.org/2000/svg">
<path d="M89.5 0.0766602C76.5225 0.0766602 66 10.8165 66 24.0619C66 37.3073 76.5225 48.0472 89.5 48.0472C102.477 48.0472 113 37.3073 113 24.0619C113 10.8165 102.477 0.0766602 89.5 0.0766602ZM100.794 18.1566C100.809 18.4082 100.809 18.6706 100.809 18.9276C100.809 26.787 94.9449 35.8404 84.2282 35.8404C80.9235 35.8404 77.8602 34.8606 75.2794 33.1742C75.7515 33.2277 76.2026 33.2491 76.6852 33.2491C79.4128 33.2491 81.9202 32.3068 83.9188 30.7114C81.3589 30.6579 79.2083 28.9446 78.4739 26.5889C79.3709 26.7228 80.1787 26.7228 81.1019 26.4819C79.7838 26.2085 78.5991 25.4779 77.749 24.4141C76.899 23.3503 76.4359 22.0189 76.4386 20.6462V20.5712C77.2097 21.0156 78.1172 21.2886 79.0666 21.3261C78.2685 20.7832 77.6139 20.0476 77.161 19.1847C76.708 18.3218 76.4707 17.3581 76.4701 16.3791C76.4701 15.2709 76.7533 14.259 77.2622 13.381C78.7252 15.2192 80.5508 16.7225 82.6203 17.7934C84.6898 18.8643 86.957 19.4788 89.2744 19.5968C88.4509 15.5546 91.4094 12.2834 94.9658 12.2834C96.6444 12.2834 98.1551 13.0009 99.22 14.1573C100.537 13.9057 101.796 13.4024 102.918 12.7278C102.483 14.1037 101.57 15.2655 100.358 15.999C101.533 15.8705 102.666 15.5386 103.715 15.0728C102.923 16.2614 101.932 17.3161 100.794 18.1566Z" fill="#A0A0A0"/>
<g clip-path="url(#clip0_35_111)">
<path fill-rule="evenodd" clip-rule="evenodd" d="M0 23.6312C0 35.3146 8.48546 45.0299 19.5833 47V30.0271H13.7083V23.5H19.5833V18.2771C19.5833 12.4021 23.3688 9.13954 28.7229 9.13954C30.4188 9.13954 32.2479 9.4 33.9438 9.66046V15.6667H30.9417C28.0688 15.6667 27.4167 17.1021 27.4167 18.9312V23.5H33.6833L32.6395 30.0271H27.4167V47C38.5145 45.0299 47 35.3166 47 23.6312C47 10.6338 36.425 0 23.5 0C10.575 0 0 10.6338 0 23.6312Z" fill="#A0A0A0"/>
</g>
<circle cx="155.5" cy="23.5" r="23.5" fill="#A0A0A0"/>
<circle cx="221.5" cy="23.5" r="23.5" fill="#A0A0A0"/>
<path d="M159.472 30.5184V34.1237C159.472 34.8869 159.218 35.2685 158.709 35.2685C158.409 35.2685 158.116 35.1432 157.829 34.8926V29.7495C158.116 29.4989 158.409 29.3736 158.709 29.3736C159.218 29.3736 159.472 29.7552 159.472 30.5184ZM166.086 30.5355V31.3215H164.325V30.5355C164.325 29.7609 164.619 29.3736 165.206 29.3736C165.793 29.3736 166.086 29.7609 166.086 30.5355ZM147.184 26.8106H149.277V25.2044H143.172V26.8106H145.227V36.5329H147.184V26.8106ZM152.819 36.5329H154.561V28.0921H152.819V34.5509C152.428 35.0293 152.056 35.2685 151.704 35.2685C151.469 35.2685 151.332 35.1489 151.293 34.9097C151.28 34.8755 151.273 34.6762 151.273 34.3116V28.0921H149.532V34.773C149.532 35.3311 149.584 35.7469 149.688 36.0203C149.845 36.4418 150.223 36.6525 150.823 36.6525C151.449 36.6525 152.115 36.3051 152.819 35.6102V36.5329ZM161.214 34.0041V30.638C161.214 29.8064 161.155 29.2426 161.038 28.9464C160.816 28.3085 160.353 27.9895 159.648 27.9895C158.996 27.9895 158.39 28.2971 157.829 28.9122V25.2044H156.087V36.5329H157.829V35.7128C158.416 36.3393 159.022 36.6525 159.648 36.6525C160.353 36.6525 160.816 36.3393 161.038 35.7128C161.155 35.4052 161.214 34.8356 161.214 34.0041ZM167.828 33.8332V33.6111H166.047C166.047 34.192 166.034 34.5395 166.008 34.6534C165.917 35.0635 165.656 35.2685 165.225 35.2685C164.625 35.2685 164.325 34.8755 164.325 34.0895V32.603H167.828V30.843C167.828 29.9431 167.652 29.2824 167.3 28.861C166.791 28.28 166.099 27.9895 165.225 27.9895C164.338 27.9895 163.64 28.28 163.132 28.861C162.766 29.2824 162.584 29.9431 162.584 30.843V33.799C162.584 34.6989 162.773 35.3596 163.151 35.7811C163.66 36.362 164.364 36.6525 165.265 36.6525C166.204 36.6525 166.908 36.3507 167.378 35.7469C167.613 35.4394 167.75 35.1318 167.789 34.8242C167.815 34.7217 167.828 34.3914 167.828 33.8332ZM155.93 18.233V14.6448C155.93 13.8588 155.65 13.4658 155.089 13.4658C154.528 13.4658 154.248 13.8588 154.248 14.6448V18.233C154.248 19.0304 154.528 19.4291 155.089 19.4291C155.65 19.4291 155.93 19.0304 155.93 18.233ZM170 31.0652C170 33.7307 169.83 35.7241 169.491 37.0455C169.309 37.7176 168.93 38.2815 168.356 38.7371C167.782 39.1928 167.117 39.4548 166.36 39.5231C163.96 39.7623 160.34 39.8819 155.5 39.8819C150.66 39.8819 147.04 39.7623 144.64 39.5231C143.883 39.4548 143.214 39.1928 142.634 38.7371C142.053 38.2815 141.678 37.7176 141.509 37.0455C141.17 35.7697 141 33.7763 141 31.0652C141 28.3996 141.17 26.4062 141.509 25.0848C141.691 24.4127 142.07 23.8488 142.644 23.3932C143.218 22.9376 143.89 22.6699 144.659 22.5901C147.047 22.3623 150.66 22.2484 155.5 22.2484C160.34 22.2484 163.96 22.3623 166.36 22.5901C167.117 22.6699 167.786 22.9376 168.366 23.3932C168.947 23.8488 169.322 24.4127 169.491 25.0848C169.83 26.3606 170 28.3541 170 31.0652ZM150.471 9.26245H152.467L150.099 16.0801V20.7106H148.142V16.0801C147.96 15.2371 147.562 14.0297 146.949 12.4577C146.466 11.2844 146.042 10.2193 145.677 9.26245H147.751L149.14 13.7563L150.471 9.26245ZM157.711 14.9523V17.9425C157.711 18.8652 157.529 19.5373 157.163 19.9588C156.668 20.5397 155.976 20.8302 155.089 20.8302C154.215 20.8302 153.53 20.5397 153.034 19.9588C152.669 19.5259 152.487 18.8538 152.487 17.9425V14.9523C152.487 14.041 152.669 13.3747 153.034 12.9532C153.53 12.3722 154.215 12.0818 155.089 12.0818C155.976 12.0818 156.668 12.3722 157.163 12.9532C157.529 13.3747 157.711 14.041 157.711 14.9523ZM164.267 12.1843V20.7106H162.486V19.7708C161.794 20.4771 161.123 20.8302 160.47 20.8302C159.87 20.8302 159.485 20.6194 159.316 20.198C159.211 19.9246 159.159 19.4974 159.159 18.9165V12.1843H160.94V18.4551C160.94 18.831 160.946 19.0304 160.96 19.0532C160.999 19.3038 161.136 19.4291 161.37 19.4291C161.723 19.4291 162.094 19.1842 162.486 18.6943V12.1843H164.267Z" fill="black"/>
<path d="M221.5 16.4684C220.029 16.4684 218.59 16.9137 217.367 17.7481C216.143 18.5825 215.189 19.7685 214.626 21.156C214.063 22.5436 213.916 24.0704 214.203 25.5434C214.49 27.0165 215.199 28.3695 216.239 29.4315C217.28 30.4935 218.605 31.2167 220.049 31.5097C221.492 31.8027 222.988 31.6523 224.347 31.0776C225.707 30.5029 226.869 29.5296 227.686 28.2808C228.504 27.032 228.94 25.5639 228.94 24.062C228.94 22.048 228.156 20.1166 226.761 18.6925C225.366 17.2684 223.473 16.4684 221.5 16.4684ZM221.5 29.1244C220.519 29.1244 219.56 28.8275 218.744 28.2712C217.929 27.715 217.293 26.9243 216.918 25.9993C216.542 25.0743 216.444 24.0564 216.635 23.0744C216.827 22.0924 217.299 21.1903 217.993 20.4823C218.686 19.7743 219.57 19.2922 220.532 19.0969C221.494 18.9015 222.492 19.0018 223.398 19.3849C224.304 19.7681 225.079 20.417 225.624 21.2495C226.169 22.082 226.46 23.0608 226.46 24.062C226.456 25.4034 225.932 26.6886 225.003 27.6371C224.073 28.5855 222.814 29.1202 221.5 29.1244ZM228.32 8.24194H214.68C212.378 8.24194 210.17 9.17532 208.542 10.8368C206.914 12.4982 206 14.7516 206 17.1012V31.0228C206 33.3724 206.914 35.6258 208.542 37.2873C210.17 38.9487 212.378 39.8821 214.68 39.8821H228.32C230.622 39.8821 232.83 38.9487 234.458 37.2873C236.086 35.6258 237 33.3724 237 31.0228V17.1012C237 14.7516 236.086 12.4982 234.458 10.8368C232.83 9.17532 230.622 8.24194 228.32 8.24194ZM234.52 31.0228C234.52 31.8538 234.36 32.6767 234.048 33.4445C233.736 34.2122 233.28 34.9098 232.704 35.4974C232.128 36.085 231.445 36.5511 230.693 36.8692C229.94 37.1872 229.134 37.3509 228.32 37.3509H214.68C213.866 37.3509 213.06 37.1872 212.307 36.8692C211.555 36.5511 210.872 36.085 210.296 35.4974C209.72 34.9098 209.264 34.2122 208.952 33.4445C208.64 32.6767 208.48 31.8538 208.48 31.0228V17.1012C208.48 15.4229 209.133 13.8133 210.296 12.6266C211.459 11.4399 213.036 10.7732 214.68 10.7732H228.32C229.134 10.7732 229.94 10.9368 230.693 11.2548C231.445 11.5729 232.128 12.039 232.704 12.6266C233.28 13.2142 233.736 13.9118 234.048 14.6795C234.36 15.4473 234.52 16.2702 234.52 17.1012V31.0228ZM231.42 15.8356C231.42 16.211 231.311 16.5781 231.107 16.8903C230.902 17.2025 230.612 17.4458 230.272 17.5895C229.932 17.7332 229.558 17.7708 229.197 17.6975C228.836 17.6243 228.505 17.4434 228.245 17.1779C227.985 16.9125 227.808 16.5742 227.736 16.2059C227.664 15.8377 227.701 15.456 227.842 15.1091C227.982 14.7622 228.221 14.4657 228.527 14.2571C228.833 14.0485 229.192 13.9372 229.56 13.9372C230.053 13.9372 230.526 14.1372 230.875 14.4932C231.224 14.8492 231.42 15.3321 231.42 15.8356Z" fill="black"/>
<defs>
<clipPath id="clip0_35_111">
<rect width="47" height="47" fill="white"/>
</clipPath>
</defs>
</svg>
