<svg width="47" height="49" viewBox="0 0 47 49" fill="none" xmlns="http://www.w3.org/2000/svg">
<path d="M23.5 0.0766602C10.5225 0.0766602 0 10.8165 0 24.0619C0 37.3073 10.5225 48.0472 23.5 48.0472C36.4775 48.0472 47 37.3073 47 24.0619C47 10.8165 36.4775 0.0766602 23.5 0.0766602ZM34.7936 18.1566C34.8094 18.4082 34.8094 18.6706 34.8094 18.9276C34.8094 26.787 28.9449 35.8404 18.2282 35.8404C14.9235 35.8404 11.8602 34.8606 9.27935 33.1742C9.75145 33.2277 10.2026 33.2491 10.6852 33.2491C13.4128 33.2491 15.9202 32.3068 17.9188 30.7114C15.3589 30.6579 13.2083 28.9446 12.4739 26.5889C13.3709 26.7228 14.1787 26.7228 15.1019 26.4819C13.7838 26.2085 12.5991 25.4779 11.749 24.4141C10.899 23.3503 10.4359 22.0189 10.4386 20.6462V20.5712C11.2097 21.0156 12.1172 21.2886 13.0666 21.3261C12.2685 20.7832 11.6139 20.0476 11.161 19.1847C10.708 18.3218 10.4707 17.3581 10.4701 16.3791C10.4701 15.2709 10.7533 14.259 11.2622 13.381C12.7252 15.2192 14.5508 16.7225 16.6203 17.7934C18.6898 18.8643 20.957 19.4788 23.2744 19.5968C22.4509 15.5546 25.4094 12.2834 28.9658 12.2834C30.6444 12.2834 32.1551 13.0009 33.22 14.1573C34.5366 13.9057 35.7955 13.4024 36.9181 12.7278C36.4827 14.1037 35.57 15.2655 34.3583 15.999C35.5333 15.8705 36.6663 15.5386 37.7154 15.0728C36.9233 16.2614 35.9319 17.3161 34.7936 18.1566V18.1566Z" fill="#A0A0A0"/>
</svg>
