<svg width="22" height="22" viewBox="0 0 22 22" fill="none" xmlns="http://www.w3.org/2000/svg">
<path d="M6.875 20.625C7.63439 20.625 8.25 20.0094 8.25 19.25C8.25 18.4906 7.63439 17.875 6.875 17.875C6.11561 17.875 5.5 18.4906 5.5 19.25C5.5 20.0094 6.11561 20.625 6.875 20.625Z" fill="#3C3C3C"/>
<path d="M16.5 20.625C17.2594 20.625 17.875 20.0094 17.875 19.25C17.875 18.4906 17.2594 17.875 16.5 17.875C15.7406 17.875 15.125 18.4906 15.125 19.25C15.125 20.0094 15.7406 20.625 16.5 20.625Z" fill="#3C3C3C"/>
<path d="M19.25 4.81249H4.00125L3.4375 1.92499C3.40536 1.76736 3.31896 1.626 3.19334 1.5255C3.06772 1.42501 2.91084 1.37174 2.75 1.37499H0V2.74999H2.18625L4.8125 15.95C4.84464 16.1076 4.93104 16.249 5.05666 16.3495C5.18228 16.45 5.33916 16.5032 5.5 16.5H17.875V15.125H6.06375L5.5 12.375H17.875C18.0339 12.3789 18.1893 12.3276 18.3146 12.2298C18.44 12.132 18.5276 11.9938 18.5625 11.8387L19.9375 5.65124C19.9605 5.54923 19.96 5.44331 19.9359 5.34154C19.9119 5.23977 19.8649 5.14483 19.7986 5.06395C19.7323 4.98308 19.6484 4.91839 19.5534 4.87481C19.4583 4.83123 19.3545 4.80992 19.25 4.81249ZM17.325 11H5.23875L4.27625 6.18749H18.3906L17.325 11Z" fill="black"/>
</svg>
