<svg width="47" height="47" viewBox="0 0 47 47" fill="none" xmlns="http://www.w3.org/2000/svg">
<circle cx="23.5" cy="23.5" r="23.5" fill="#A0A0A0"/>
<path d="M27.4723 30.5184V34.1237C27.4723 34.8869 27.2179 35.2685 26.7092 35.2685C26.4091 35.2685 26.1156 35.1432 25.8286 34.8926V29.7495C26.1156 29.4989 26.4091 29.3736 26.7092 29.3736C27.2179 29.3736 27.4723 29.7552 27.4723 30.5184ZM34.0864 30.5355V31.3215H32.3252V30.5355C32.3252 29.7609 32.6188 29.3736 33.2058 29.3736C33.7928 29.3736 34.0864 29.7609 34.0864 30.5355ZM15.1835 26.8106H17.2773V25.2044H11.1721V26.8106H13.2267V36.5329H15.1835V26.8106ZM20.8192 36.5329H22.5607V28.0921H20.8192V34.5509C20.4278 35.0293 20.056 35.2685 19.7038 35.2685C19.469 35.2685 19.332 35.1489 19.2928 34.9097C19.2798 34.8755 19.2733 34.6762 19.2733 34.3116V28.0921H17.5317V34.773C17.5317 35.3311 17.5839 35.7469 17.6883 36.0203C17.8448 36.4418 18.2231 36.6525 18.8232 36.6525C19.4494 36.6525 20.1147 36.3051 20.8192 35.6102V36.5329ZM29.2139 34.0041V30.638C29.2139 29.8064 29.1552 29.2426 29.0378 28.9464C28.816 28.3085 28.3529 27.9895 27.6484 27.9895C26.9962 27.9895 26.3896 28.2971 25.8286 28.9122V25.2044H24.087V36.5329H25.8286V35.7128C26.4157 36.3393 27.0223 36.6525 27.6484 36.6525C28.3529 36.6525 28.816 36.3393 29.0378 35.7128C29.1552 35.4052 29.2139 34.8356 29.2139 34.0041ZM35.8279 33.8332V33.6111H34.0472C34.0472 34.192 34.0342 34.5395 34.0081 34.6534C33.9168 35.0635 33.6559 35.2685 33.2254 35.2685C32.6253 35.2685 32.3252 34.8755 32.3252 34.0895V32.603H35.8279V30.843C35.8279 29.9431 35.6518 29.2824 35.2996 28.861C34.7908 28.28 34.0994 27.9895 33.2254 27.9895C32.3383 27.9895 31.6404 28.28 31.1316 28.861C30.7663 29.2824 30.5837 29.9431 30.5837 30.843V33.799C30.5837 34.6989 30.7728 35.3596 31.1511 35.7811C31.6599 36.362 32.3644 36.6525 33.2645 36.6525C34.2038 36.6525 34.9082 36.3507 35.3779 35.7469C35.6127 35.4394 35.7497 35.1318 35.7888 34.8242C35.8149 34.7217 35.8279 34.3914 35.8279 33.8332ZM23.9305 18.233V14.6448C23.9305 13.8588 23.65 13.4658 23.0891 13.4658C22.5281 13.4658 22.2476 13.8588 22.2476 14.6448V18.233C22.2476 19.0304 22.5281 19.4291 23.0891 19.4291C23.65 19.4291 23.9305 19.0304 23.9305 18.233ZM38 31.0652C38 33.7307 37.8304 35.7241 37.4912 37.0455C37.3086 37.7176 36.9303 38.2815 36.3563 38.7371C35.7823 39.1928 35.117 39.4548 34.3603 39.5231C31.96 39.7623 28.3399 39.8819 23.5 39.8819C18.6601 39.8819 15.04 39.7623 12.6397 39.5231C11.883 39.4548 11.2145 39.1928 10.6339 38.7371C10.0534 38.2815 9.67836 37.7176 9.50877 37.0455C9.16959 35.7697 9 33.7763 9 31.0652C9 28.3996 9.16959 26.4062 9.50877 25.0848C9.69141 24.4127 10.0697 23.8488 10.6437 23.3932C11.2177 22.9376 11.8896 22.6699 12.6592 22.5901C15.0466 22.3623 18.6601 22.2484 23.5 22.2484C28.3399 22.2484 31.96 22.3623 34.3603 22.5901C35.117 22.6699 35.7855 22.9376 36.3661 23.3932C36.9466 23.8488 37.3216 24.4127 37.4912 25.0848C37.8304 26.3606 38 28.3541 38 31.0652ZM18.471 9.26245H20.4669L18.0992 16.0801V20.7106H16.1424V16.0801C15.9597 15.2371 15.5619 14.0297 14.9487 12.4577C14.466 11.2844 14.0421 10.2193 13.6768 9.26245H15.751L17.1404 13.7563L18.471 9.26245ZM25.7112 14.9523V17.9425C25.7112 18.8652 25.5286 19.5373 25.1633 19.9588C24.6676 20.5397 23.9762 20.8302 23.0891 20.8302C22.215 20.8302 21.5301 20.5397 21.0344 19.9588C20.6691 19.5259 20.4865 18.8538 20.4865 17.9425V14.9523C20.4865 14.041 20.6691 13.3747 21.0344 12.9532C21.5301 12.3722 22.215 12.0818 23.0891 12.0818C23.9762 12.0818 24.6676 12.3722 25.1633 12.9532C25.5286 13.3747 25.7112 14.041 25.7112 14.9523ZM32.2665 12.1843V20.7106H30.4858V19.7708C29.7944 20.4771 29.1226 20.8302 28.4703 20.8302C27.8702 20.8302 27.4854 20.6194 27.3158 20.198C27.2114 19.9246 27.1592 19.4974 27.1592 18.9165V12.1843H28.9399V18.4551C28.9399 18.831 28.9465 19.0304 28.9595 19.0532C28.9987 19.3038 29.1356 19.4291 29.3704 19.4291C29.7227 19.4291 30.0945 19.1842 30.4858 18.6943V12.1843H32.2665Z" fill="black"/>
</svg>
